<svg xmlns="http://www.w3.org/2000/svg" width="255" height="260" fill="none" viewBox="0 0 255 260"><path fill="#dc5b49" stroke="#000" stroke-width="10" d="m144.299 45.833 1.587.883 1.783-.34 75.76-14.463-14.171 77.61-.312 1.713.818 1.536 36.965 69.39-76.515 10.195-1.785.237-1.223 1.323-52.928 57.174-33.076-71.141-.75-1.613-1.599-.777-69.767-33.907 56.137-54.322 1.262-1.22.222-1.741 9.965-78.198Z"/><path fill="#fff" d="M57.225 143.58v-38.5h16.5q1.596 0 2.75 1.155 1.21 1.155 1.21 2.805v11.825q0 1.65-1.21 2.805-1.154 1.155-2.75 1.155H62.34v18.755Zm5.115-23.87h8.25q.826 0 1.375-.55.606-.605.605-1.43v-5.61q0-.77-.605-1.32a1.78 1.78 0 0 0-1.375-.605h-8.25Zm26.06 23.87q-1.65 0-2.86-1.155-1.155-1.21-1.155-2.86V120.04q0-1.65 1.155-2.805 1.21-1.155 2.86-1.155h7.48q1.705 0 2.86 1.155t1.156 2.805v8.36q0 1.65-1.156 2.86-1.155 1.155-2.86 1.155h-6.325v4.015q0 .825.55 1.43.606.55 1.486.55h7.15l1.154 5.17Zm1.155-16.335h3.19q.825 0 1.376-.55.605-.605.605-1.43v-2.035q0-.825-.605-1.375a1.78 1.78 0 0 0-1.375-.605H91.59a2.02 2.02 0 0 0-1.485.605q-.55.55-.55 1.375Zm15.842 16.335v-27.5h11.495q1.65 0 2.805 1.21 1.21 1.155 1.21 2.805v5.995l-5.17-1.155v-1.65q0-.825-.605-1.43a1.78 1.78 0 0 0-1.375-.605h-3.19v22.33Zm24.49 0q-1.705 0-2.86-1.155t-1.155-2.86v-19.47q0-1.705 1.155-2.86t2.86-1.155h6.325v-12.54l5.17-1.21v41.25Zm3.135-5.17h3.19v-17.16h-3.19q-.77 0-1.375.55t-.605 1.43v13.2q0 .77.605 1.375t1.375.605m14.452-29.7v-5.17l5.17-1.21v5.17Zm.11 34.87v-26.29l5.17-1.21v27.5Zm15.731 0q-1.65 0-2.805-1.155-1.155-1.21-1.155-2.86V135h5.115v1.43q0 .825.605 1.43.606.55 1.43.55h1.155q.826 0 1.375-.55.606-.605.605-1.43v-2.035a1.78 1.78 0 0 0-.605-1.375 1.78 1.78 0 0 0-1.375-.605h-4.345q-1.65 0-2.805-1.155-1.155-1.21-1.155-2.86v-8.305q0-1.65 1.155-2.805 1.155-1.21 2.805-1.21h7.535q1.65 0 2.805 1.21 1.155 1.155 1.155 2.805v4.565h-5.17v-1.43a1.78 1.78 0 0 0-.605-1.375 1.78 1.78 0 0 0-1.375-.605h-1.155q-.825 0-1.43.605a1.78 1.78 0 0 0-.605 1.375v2.035q0 .825.605 1.43.606.55 1.43.55h4.345q1.65 0 2.805 1.21 1.155 1.155 1.155 2.805v8.525q-.055 1.54-1.21 2.695a3.85 3.85 0 0 1-2.75 1.1Zm17.589 0v-40.04l5.17-1.155v13.695h6.545l-1.21 5.17h-5.335v22.33Zm20.139 0q-1.65 0-2.86-1.155-1.155-1.21-1.155-2.86V120.04q0-1.65 1.155-2.805 1.21-1.155 2.86-1.155h7.48q1.705 0 2.86 1.155t1.155 2.805v8.36q0 1.65-1.155 2.86-1.155 1.155-2.86 1.155h-6.325v4.015q0 .825.55 1.43.605.55 1.485.55h7.15l1.155 5.17Zm1.155-16.335h3.19q.825 0 1.375-.55.605-.605.605-1.43v-2.035q0-.825-.605-1.375a1.78 1.78 0 0 0-1.375-.605h-1.155a2.02 2.02 0 0 0-1.485.605q-.55.55-.55 1.375Z"/></svg>