<svg xmlns="http://www.w3.org/2000/svg" width="68" height="129" fill="none" viewBox="0 0 68 129"><path fill="#ffcab9" d="M61.587 36.085a5.284 5.284 0 0 0-6.975 2.681l-7.127 16.501h-1.69V15.411a5.284 5.284 0 0 0-10.568 0V7.995a5.284 5.284 0 0 0-10.568 0v7.415a5.284 5.284 0 0 0-10.568 0v12.502a5.284 5.284 0 0 0-10.568 0v37.91c0 6.029 3.787 11.17 9.11 13.186v44.7h31.026V79.009a14.14 14.14 0 0 0 8.396-8.757l.037.006 5.049-11.17 7.127-16.027a5.283 5.283 0 0 0-2.68-6.975"/><path fill="#fabba7" d="M21.712 15.41c0-1.42.563-2.706 1.474-3.655a5.3 5.3 0 0 0-1.474-1.079Z"/><path fill="#000" d="M13.53 76.639C9.06 74.947 6.058 70.6 6.058 65.823v-6.684C6.058 55.862.99 55.862.99 59.139v6.684c0 6.27 3.596 12.024 9.109 14.832v44.055a2.534 2.534 0 1 0 5.068 0V79.009a2.53 2.53 0 0 0-1.637-2.37"/><path fill="#000" d="M66.738 38.108a7.77 7.77 0 0 0-4.12-4.338c-3.894-1.73-8.625.151-10.332 3.991l-3.957 9.16V15.41c.108-5.352-5.619-9.285-10.567-7.318C37.16-2.421 22.55-2.412 22.126 8.091c-4.95-1.966-10.675 1.966-10.568 7.319v5.183C6.612 18.629.881 22.559.991 27.913v18.556c0 3.276 5.068 3.276 5.068-.001V27.912C6.2 24.266 11.42 24.272 11.559 27.912v17.624C11.558 48.814 16.626 48.814 16.626 45.537V15.41C16.762 11.774 21.987 11.763 22.126 15.41v24.644C22.126 43.33 27.194 43.33 27.194 40.054V7.995a2.753 2.753 0 0 1 2.75-2.75 2.75 2.75 0 0 1 2.75 2.75v32.059C32.694 43.33 37.762 43.33 37.762 40.054V15.41a2.753 2.753 0 0 1 2.75-2.75 2.753 2.753 0 0 1 2.75 2.75v37.384c-7.48.669-13.333 6.958-13.333 14.483C29.929 70.553 34.997 70.553 34.997 67.277c0-7.105 6.433-9.727 12.49-9.476a2.54 2.54 0 0 0 2.327-1.53l7.115-16.475q1.238-2.2 3.63-1.395 2.2 1.236 1.395 3.63c-3.997 8.988-12.251 27.386-12.251 27.386-1.169 3.32-3.763 6.02-6.94 7.222a2.53 2.53 0 0 0-1.637 2.37v44.7a2.534 2.534 0 1 0 5.068 0V80.65c3.767-1.935 6.782-5.356 8.251-9.443 4.08-9.025 8.116-18.067 12.14-27.116a7.77 7.77 0 0 0 .153-5.982"/></svg>