<svg xmlns="http://www.w3.org/2000/svg" width="56" height="125" fill="none" viewBox="0 0 56 125"><path fill="#ffcab9" d="M43.66 122.21V55.742c5.322-2.015 9.108-7.157 9.108-13.186v-23.98H3.525v23.98c0 6.029 3.785 11.171 9.108 13.186v66.468Z"/><path fill="#fabba7" d="M8.808 24.091a5.284 5.284 0 0 1-5.284-5.284v-5.039a5.284 5.284 0 1 1 10.568 0v5.039a5.284 5.284 0 0 1-5.284 5.284"/><path fill="#fabba7" d="M19.376 24.091a5.284 5.284 0 0 1-5.284-5.284V8.024a5.284 5.284 0 1 1 10.568 0v10.783a5.284 5.284 0 0 1-5.284 5.284"/><path fill="#fabba7" d="M29.944 24.091a5.284 5.284 0 0 1-5.284-5.284V8.024a5.284 5.284 0 1 1 10.568 0v10.783a5.284 5.284 0 0 1-5.284 5.284"/><path fill="#fabba7" d="M40.512 24.091a5.284 5.284 0 0 1-5.284-5.284V8.024a5.284 5.284 0 1 1 10.568 0v10.783a5.284 5.284 0 0 1-5.284 5.284"/><path fill="#ffcab9" d="M52.769 42.556V18.807a5.284 5.284 0 0 0-5.284-5.284h-17.54a5.284 5.284 0 1 0 0 10.568h12.257V32c-4.896.906-9.74 5.524-9.74 12.009"/><path fill="#000" d="M48.33 11.035V8.024c.022-6.78-8.196-10.331-13.102-5.756C32.375-.46 27.512-.46 24.66 2.269 20.232-1.868 12.832.595 11.707 6.51 6.746 4.413.877 8.35.99 13.769v28.787c0 6.27 3.595 12.024 9.108 14.832l.897 63.788a2.534 2.534 0 1 0 5.068 0l-.897-65.434a2.53 2.53 0 0 0-1.637-2.37C9.061 51.681 6.06 47.334 6.06 42.556V26.125c2.657 1.064 6.033.366 8.033-1.562C16.945 27.292 21.808 27.292 24.66 24.563a7.8 7.8 0 0 0 5.284 2.062h9.722v3.454c-5.03 1.838-9.738 6.896-9.738 13.931a2.534 2.534 0 1 0 5.068 0c0-5.26 3.95-8.83 7.666-9.518A2.534 2.534 0 0 0 44.735 32v-7.91c0-1.399-1.135-2.533-2.534-2.533H29.944a2.753 2.753 0 0 1-2.75-2.75 2.753 2.753 0 0 1 2.75-2.75h17.54a2.753 2.753 0 0 1 2.75 2.75v23.749c0 4.778-3.003 9.124-7.471 10.816a2.53 2.53 0 0 0-1.637 2.37l.897 65.434a2.534 2.534 0 1 0 5.068 0l-.897-63.788c5.513-2.808 9.109-8.562 9.109-14.832V18.807c0-4.025-3.059-7.349-6.973-7.772m-7.819-5.76a2.753 2.753 0 0 1 2.75 2.75v2.965h-5.5V8.024a2.753 2.753 0 0 1 2.75-2.75M8.808 21.557a2.753 2.753 0 0 1-2.75-2.75v-5.039C6.199 10.124 11.422 10.128 11.559 13.769v5.039a2.75 2.75 0 0 1-2.75 2.75m10.569 0a2.753 2.753 0 0 1-2.75-2.75V8.024C16.764 4.381 21.988 4.384 22.125 8.024v10.783a2.753 2.753 0 0 1-2.75 2.75m7.817-10.067V8.025C27.333 4.38 32.556 4.384 32.694 8.024v2.965h-2.75c-.967-.001-1.894.177-2.75.5"/></svg>