<svg xmlns="http://www.w3.org/2000/svg" width="55" height="126" fill="none" viewBox="0 0 55 126"><path fill="#ffcab9" d="M42.67 122.642V78.53c5.324-2.015 9.11-7.157 9.11-13.186v-23.98H2.535v23.98c0 6.029 3.785 11.171 9.108 13.186v44.112Z"/><path fill="#fabba7" d="M30.979 44.062a5.284 5.284 0 0 1-6.155-4.238L19.098 8.778A5.284 5.284 0 0 1 29.49 6.86l5.727 31.048a5.284 5.284 0 0 1-4.238 6.155"/><path fill="#fabba7" d="M37.109 43.612a5.284 5.284 0 0 1-3.64-6.526l8.618-30.371A5.284 5.284 0 0 1 52.253 9.6l-8.619 30.37a5.284 5.284 0 0 1-6.526 3.64M7.82 46.88a5.284 5.284 0 0 1-5.284-5.284v-5.039a5.284 5.284 0 1 1 10.568 0v5.039A5.284 5.284 0 0 1 7.82 46.88"/><path fill="#fabba7" d="M18.388 46.88a5.284 5.284 0 0 1-5.284-5.284V30.812a5.284 5.284 0 1 1 10.568 0v10.783a5.284 5.284 0 0 1-5.284 5.284"/><path fill="#ffcab9" d="M51.78 65.344V41.595a5.284 5.284 0 0 0-5.284-5.284h-17.54a5.284 5.284 0 1 0 0 10.568h12.257v7.91c-4.896.906-9.739 5.524-9.739 12.01"/><path fill="#000" d="M42.67 102.481a2.534 2.534 0 0 0-2.534 2.534v17.627c.117 3.356 4.954 3.353 5.07 0v-17.627a2.534 2.534 0 0 0-2.534-2.534M49.304.636C45.228-.52 40.793 1.99 39.65 6.023l-4.688 16.522L31.984 6.4c-.782-4.24-4.87-7.053-9.107-6.27-4.24.782-7.052 4.867-6.27 9.106l2.544 13.795c-3.871-.376-7.679 2.44-8.433 6.266C5.757 27.201-.112 31.14.002 36.558v28.787c0 6.27 3.595 12.024 9.108 14.832v42.465a2.534 2.534 0 1 0 5.068 0V78.53a2.53 2.53 0 0 0-1.637-2.37C8.072 74.47 5.07 70.122 5.07 65.344V48.913c2.657 1.064 6.033.365 8.034-1.562C15.956 50.081 20.819 50.08 23.67 47.352a7.8 7.8 0 0 0 5.284 2.062h9.722v3.454c-5.03 1.838-9.738 6.896-9.738 13.931a2.534 2.534 0 1 0 5.068 0c0-5.26 3.95-8.83 7.666-9.518a2.534 2.534 0 0 0 2.073-2.492v-7.91c0-1.398-1.134-2.533-2.534-2.533H28.955c-3.637-.135-3.646-5.36 0-5.5h17.54a2.753 2.753 0 0 1 2.75 2.75v23.749c0 4.778-3.002 9.124-7.47 10.816a2.53 2.53 0 0 0-1.637 2.37v13.42a2.534 2.534 0 1 0 5.068 0V80.176c5.512-2.808 9.108-8.561 9.108-14.832V41.595c0-3.801-2.728-6.976-6.328-7.674l6.705-23.63c1.177-4.147-1.24-8.479-5.387-9.655M7.82 44.345a2.753 2.753 0 0 1-2.75-2.75v-5.038C5.208 32.913 10.432 32.916 10.57 36.556v5.039a2.75 2.75 0 0 1-2.75 2.75m13.317-2.75C21 45.235 15.777 45.24 15.638 41.595V30.812C15.775 27.172 20.998 27.168 21.138 30.813Zm5.069-7.317v-3.465a7.77 7.77 0 0 0-1.245-4.225l-3.37-18.27a2.753 2.753 0 0 1 2.205-3.203A2.753 2.753 0 0 1 27 7.32l4.879 26.457h-2.923c-.967 0-1.894.178-2.75.5m23.61-25.37-7.058 24.869h-5.717l7.484-26.37q.913-2.355 3.396-1.895a2.753 2.753 0 0 1 1.895 3.396"/></svg>