<svg xmlns="http://www.w3.org/2000/svg" width="255" height="260" fill="none" viewBox="0 0 255 260"><path fill="#6cb46c" stroke="#000" stroke-width="10" d="m144.299 45.833 1.587.883 1.783-.34 75.76-14.463-14.171 77.61-.312 1.713.818 1.536 36.965 69.39-76.515 10.195-1.785.237-1.223 1.323-52.928 57.174-33.076-71.141-.75-1.613-1.599-.777-69.767-33.907 56.137-54.322 1.262-1.22.222-1.741 9.965-78.198Z"/><path fill="#fff" d="M65.337 143.58q-1.65 0-2.805-1.155t-1.155-2.805v-30.635q0-1.595 1.155-2.75t2.805-1.155h12.485q1.65 0 2.805 1.155t1.155 2.75v8.58l-5.115-1.155v-4.29q0-.825-.605-1.375a1.78 1.78 0 0 0-1.375-.605h-6.215q-.825 0-1.43.605-.55.55-.55 1.375v24.365q0 .825.55 1.43.605.55 1.43.55h6.215q.825 0 1.375-.55.605-.605.605-1.43v-5.335h-5.06l1.155-5.115h9.02v13.585q0 1.65-1.155 2.805t-2.805 1.155Zm28.826 0q-1.65 0-2.86-1.155-1.155-1.155-1.155-2.86v-8.305q0-1.65 1.155-2.805 1.21-1.21 2.86-1.21h4.29q.88 0 1.43-.55.606-.605.605-1.43v-2.035a1.78 1.78 0 0 0-.605-1.375q-.55-.605-1.43-.605h-5.94l1.155-5.17h7.975q1.65 0 2.805 1.21 1.21 1.155 1.21 2.805v23.485Zm3.135-5.17h3.19v-5.995h-3.19q-.825 0-1.43.605-.55.55-.55 1.375v2.035q0 .825.55 1.43.605.55 1.43.55m14.095 5.17v-27.5h11.495q1.594 0 2.805 1.155t1.21 2.805v23.54h-5.17v-20.35q0-.88-.605-1.43t-1.375-.55h-3.19v22.33Zm25.223 0q-1.65 0-2.86-1.155-1.155-1.155-1.155-2.86v-8.305q0-1.65 1.155-2.805 1.21-1.21 2.86-1.21h4.29q.88 0 1.43-.55.605-.605.605-1.43v-2.035a1.78 1.78 0 0 0-.605-1.375q-.55-.605-1.43-.605h-5.94l1.155-5.17h7.975q1.65 0 2.805 1.21 1.21 1.155 1.21 2.805v23.485Zm3.135-5.17h3.19v-5.995h-3.19q-.825 0-1.43.605-.55.55-.55 1.375v2.035q0 .825.55 1.43.605.55 1.43.55m18.413 5.17q-1.65 0-2.805-1.155-1.155-1.21-1.155-2.86V135h5.115v1.43q0 .825.605 1.43.605.55 1.43.55h1.155q.825 0 1.375-.55.605-.605.605-1.43v-2.035q0-.825-.605-1.375a1.78 1.78 0 0 0-1.375-.605h-4.345q-1.65 0-2.805-1.155-1.155-1.21-1.155-2.86v-8.305q0-1.65 1.155-2.805 1.155-1.21 2.805-1.21h7.535q1.65 0 2.805 1.21 1.155 1.155 1.155 2.805v4.565h-5.17v-1.43q0-.825-.605-1.375a1.78 1.78 0 0 0-1.375-.605h-1.155q-.825 0-1.43.605a1.78 1.78 0 0 0-.605 1.375v2.035q0 .825.605 1.43.605.55 1.43.55h4.345q1.65 0 2.805 1.21 1.155 1.155 1.155 2.805v8.525q-.055 1.54-1.21 2.695a3.85 3.85 0 0 1-2.75 1.1Zm17.589 0v-40.04l5.17-1.155v13.695h6.545l-1.21 5.17h-5.335v22.33Zm20.139 0q-1.65 0-2.86-1.155-1.155-1.21-1.155-2.86V120.04q0-1.65 1.155-2.805 1.21-1.155 2.86-1.155h7.48q1.704 0 2.86 1.155t1.155 2.805v8.36q0 1.65-1.155 2.86-1.155 1.155-2.86 1.155h-6.325v4.015q0 .825.55 1.43.605.55 1.485.55h7.15l1.155 5.17Zm1.155-16.335h3.19q.825 0 1.375-.55.605-.605.605-1.43v-2.035q0-.825-.605-1.375a1.78 1.78 0 0 0-1.375-.605h-1.155a2.02 2.02 0 0 0-1.485.605q-.55.55-.55 1.375Z"/></svg>